<svg width="16" height="19" viewBox="0 0 16 19" fill="none" xmlns="http://www.w3.org/2000/svg">
<path fill-rule="evenodd" clip-rule="evenodd" d="M15 7H1V18H15V7ZM0 6V19H16V6H0Z" fill="#254A5A"/>
<path fill-rule="evenodd" clip-rule="evenodd" d="M4.11091 2.11091C5.14236 1.07946 6.54131 0.5 8 0.5C9.45869 0.5 10.8576 1.07946 11.8891 2.11091C12.9205 3.14236 13.5 4.54131 13.5 6H12.5C12.5 4.80653 12.0259 3.66193 11.182 2.81802C10.3381 1.97411 9.19347 1.5 8 1.5C6.80653 1.5 5.66193 1.97411 4.81802 2.81802C3.97411 3.66193 3.5 4.80653 3.5 6H2.5C2.5 4.54131 3.07946 3.14236 4.11091 2.11091Z" fill="#254A5A"/>
</svg>
