<svg width="29" height="26" viewBox="0 0 29 26" fill="none" xmlns="http://www.w3.org/2000/svg">
<g filter="url(#filter0_d_2586_2)">
<path fill-rule="evenodd" clip-rule="evenodd" d="M5.96447 1.96447C7.91709 0.0118446 11.0829 0.0118446 13.0355 1.96447L14.5 3.42893L15.9645 1.96447C17.9171 0.0118448 21.0829 0.0118448 23.0355 1.96447C24.9882 3.91709 24.9882 7.08291 23.0355 9.03553L14.5 17.5711L5.96447 9.03553C4.01184 7.08291 4.01184 3.91709 5.96447 1.96447ZM12.3284 2.67157C10.7663 1.10948 8.23367 1.10948 6.67157 2.67157C5.10948 4.23367 5.10948 6.76633 6.67157 8.32843L14.5 16.1569L22.3284 8.32843C23.8905 6.76633 23.8905 4.23367 22.3284 2.67157C20.7663 1.10948 18.2337 1.10948 16.6716 2.67157L14.5 4.84315L12.3284 2.67157Z" fill="#254A5A"/>
</g>
<defs>
<filter id="filter0_d_2586_2" x="0.5" y="0.5" width="28" height="25.071" filterUnits="userSpaceOnUse" color-interpolation-filters="sRGB">
<feFlood flood-opacity="0" result="BackgroundImageFix"/>
<feColorMatrix in="SourceAlpha" type="matrix" values="0 0 0 0 0 0 0 0 0 0 0 0 0 0 0 0 0 0 127 0" result="hardAlpha"/>
<feOffset dy="4"/>
<feGaussianBlur stdDeviation="2"/>
<feComposite in2="hardAlpha" operator="out"/>
<feColorMatrix type="matrix" values="0 0 0 0 0 0 0 0 0 0 0 0 0 0 0 0 0 0 0.25 0"/>
<feBlend mode="normal" in2="BackgroundImageFix" result="effect1_dropShadow_2586_2"/>
<feBlend mode="normal" in="SourceGraphic" in2="effect1_dropShadow_2586_2" result="shape"/>
</filter>
</defs>
</svg>
